<svg width="1200" height="800" xmlns="http://www.w3.org/2000/svg">
  <!-- Background -->
  <rect width="1200" height="800" fill="#f8f9fa"/>
  
  <!-- Header -->
  <rect x="0" y="0" width="1200" height="70" fill="#2c3e50"/>
  <text x="30" y="40" font-family="Arial, sans-serif" font-size="20" font-weight="bold" fill="white">CareCred Senior Dashboard</text>
  <circle cx="1120" cy="35" r="20" fill="#95a5a6"/>
  <text x="1120" y="40" font-family="Arial, sans-serif" font-size="12" fill="white" text-anchor="middle">MT</text>
  
  <!-- Navigation -->
  <rect x="0" y="70" width="200" height="730" fill="#34495e"/>
  <text x="20" y="110" font-family="Arial, sans-serif" font-size="14" font-weight="bold" fill="white">Dashboard</text>
  <text x="20" y="140" font-family="Arial, sans-serif" font-size="14" fill="#bdc3c7">Find Students</text>
  <text x="20" y="170" font-family="Arial, sans-serif" font-size="14" fill="#bdc3c7">My Calendar</text>
  <text x="20" y="200" font-family="Arial, sans-serif" font-size="14" fill="#bdc3c7">Messages</text>
  <text x="20" y="230" font-family="Arial, sans-serif" font-size="14" fill="#bdc3c7">Profile</text>
  <text x="20" y="260" font-family="Arial, sans-serif" font-size="14" fill="#bdc3c7">Help</text>
  
  <!-- Main Content -->
  <!-- Welcome Section -->
  <rect x="220" y="90" width="960" height="100" fill="white" stroke="#ecf0f1" stroke-width="1" rx="5"/>
  <text x="240" y="120" font-family="Arial, sans-serif" font-size="24" font-weight="bold" fill="#2c3e50">Good afternoon, Margaret!</text>
  <text x="240" y="145" font-family="Arial, sans-serif" font-size="16" fill="#7f8c8d">You have one session scheduled for today</text>
  <rect x="1050" y="110" width="100" height="40" fill="#e74c3c" rx="5"/>
  <text x="1100" y="135" font-family="Arial, sans-serif" font-size="14" font-weight="bold" fill="white" text-anchor="middle">Need Help?</text>
  
  <!-- Today's Sessions -->
  <rect x="220" y="210" width="750" height="300" fill="white" stroke="#ecf0f1" stroke-width="1" rx="5"/>
  <text x="240" y="240" font-family="Arial, sans-serif" font-size="18" font-weight="bold" fill="#2c3e50">Today's Sessions</text>
  
  <!-- Session Card -->
  <rect x="240" y="260" width="710" height="120" fill="#e8f5e8" stroke="#27ae60" stroke-width="2" rx="10"/>
  <circle cx="280" cy="300" r="25" fill="#3498db"/>
  <text x="280" y="305" font-family="Arial, sans-serif" font-size="14" fill="white" text-anchor="middle">JS</text>
  
  <text x="320" y="280" font-family="Arial, sans-serif" font-size="18" font-weight="bold" fill="#2c3e50">John Smith</text>
  <text x="320" y="300" font-family="Arial, sans-serif" font-size="14" fill="#7f8c8d">UC Berkeley Student • Rating: 4.9 ★</text>
  <text x="320" y="320" font-family="Arial, sans-serif" font-size="16" fill="#27ae60" font-weight="bold">2:00 PM - 4:00 PM</text>
  <text x="320" y="340" font-family="Arial, sans-serif" font-size="14" fill="#7f8c8d">Grocery shopping &amp; companionship</text>
  <text x="320" y="360" font-family="Arial, sans-serif" font-size="12" fill="#95a5a6">John will help with weekly grocery shopping and provide companionship</text>
  
  <rect x="800" y="280" width="120" height="30" fill="#3498db" rx="5"/>
  <text x="860" y="300" font-family="Arial, sans-serif" font-size="14" font-weight="bold" fill="white" text-anchor="middle">Message John</text>
  
  <rect x="800" y="320" width="120" height="30" fill="#95a5a6" rx="5"/>
  <text x="860" y="340" font-family="Arial, sans-serif" font-size="14" font-weight="bold" fill="white" text-anchor="middle">Session Details</text>
  
  <!-- Quick Stats -->
  <rect x="990" y="210" width="190" height="140" fill="white" stroke="#ecf0f1" stroke-width="1" rx="5"/>
  <text x="1010" y="240" font-family="Arial, sans-serif" font-size="16" font-weight="bold" fill="#2c3e50">This Month</text>
  
  <text x="1010" y="270" font-family="Arial, sans-serif" font-size="14" fill="#7f8c8d">Sessions completed:</text>
  <text x="1150" y="270" font-family="Arial, sans-serif" font-size="16" font-weight="bold" fill="#27ae60">8</text>
  
  <text x="1010" y="295" font-family="Arial, sans-serif" font-size="14" fill="#7f8c8d">Hours of help received:</text>
  <text x="1150" y="295" font-family="Arial, sans-serif" font-size="16" font-weight="bold" fill="#3498db">16</text>
  
  <text x="1010" y="320" font-family="Arial, sans-serif" font-size="14" fill="#7f8c8d">Students helped you:</text>
  <text x="1150" y="320" font-family="Arial, sans-serif" font-size="16" font-weight="bold" fill="#f39c12">5</text>
  
  <rect x="990" y="370" width="190" height="140" fill="white" stroke="#ecf0f1" stroke-width="1" rx="5"/>
  <text x="1010" y="400" font-family="Arial, sans-serif" font-size="16" font-weight="bold" fill="#2c3e50">Emergency Contact</text>
  <text x="1010" y="425" font-family="Arial, sans-serif" font-size="14" fill="#e74c3c">📞 Support: (555) 123-4567</text>
  <text x="1010" y="445" font-family="Arial, sans-serif" font-size="14" fill="#7f8c8d">🚨 Emergency: 911</text>
  <text x="1010" y="465" font-family="Arial, sans-serif" font-size="14" fill="#3498db">💬 In-app help available</text>
  <rect x="1010" y="480" width="150" height="25" fill="#e74c3c" rx="3"/>
  <text x="1085" y="497" font-family="Arial, sans-serif" font-size="12" font-weight="bold" fill="white" text-anchor="middle">Report Issue</text>
  
  <!-- Upcoming Help Requests -->
  <rect x="220" y="530" width="750" height="240" fill="white" stroke="#ecf0f1" stroke-width="1" rx="5"/>
  <text x="240" y="560" font-family="Arial, sans-serif" font-size="18" font-weight="bold" fill="#2c3e50">Upcoming Help Requests</text>
  
  <!-- Request 1 -->
  <rect x="240" y="580" width="710" height="60" fill="#f8f9fa" rx="5"/>
  <circle cx="270" cy="610" r="15" fill="#e74c3c"/>
  <text x="270" y="615" font-family="Arial, sans-serif" font-size="12" fill="white" text-anchor="middle">RC</text>
  <text x="300" y="595" font-family="Arial, sans-serif" font-size="14" font-weight="bold" fill="#2c3e50">Robert Chen</text>
  <text x="300" y="615" font-family="Arial, sans-serif" font-size="12" fill="#7f8c8d">Tomorrow, 10:00 AM - 12:00 PM</text>
  <text x="300" y="630" font-family="Arial, sans-serif" font-size="12" fill="#7f8c8d">Technology help &amp; computer setup</text>
  <rect x="800" y="595" width="80" height="25" fill="#27ae60" rx="3"/>
  <text x="840" y="612" font-family="Arial, sans-serif" font-size="12" font-weight="bold" fill="white" text-anchor="middle">Confirmed</text>
  <rect x="890" y="595" width="50" height="25" fill="#3498db" rx="3"/>
  <text x="915" y="612" font-family="Arial, sans-serif" font-size="12" font-weight="bold" fill="white" text-anchor="middle">Message</text>
  
  <!-- Request 2 -->
  <rect x="240" y="650" width="710" height="60" fill="#f8f9fa" rx="5"/>
  <circle cx="270" cy="680" r="15" fill="#3498db"/>
  <text x="270" y="685" font-family="Arial, sans-serif" font-size="12" fill="white" text-anchor="middle">ES</text>
  <text x="300" y="665" font-family="Arial, sans-serif" font-size="14" font-weight="bold" fill="#2c3e50">Emily Smith</text>
  <text x="300" y="685" font-family="Arial, sans-serif" font-size="12" fill="#7f8c8d">Friday, 3:00 PM - 5:00 PM</text>
  <text x="300" y="700" font-family="Arial, sans-serif" font-size="12" fill="#7f8c8d">Light housekeeping &amp; meal preparation</text>
  <rect x="800" y="665" width="80" height="25" fill="#f39c12" rx="3"/>
  <text x="840" y="682" font-family="Arial, sans-serif" font-size="12" font-weight="bold" fill="white" text-anchor="middle">Pending</text>
  <rect x="890" y="665" width="50" height="25" fill="#27ae60" rx="3"/>
  <text x="915" y="682" font-family="Arial, sans-serif" font-size="12" font-weight="bold" fill="white" text-anchor="middle">Accept</text>
</svg>